<svg width="700pt" height="800" viewBox="0 0 700 600" xmlns="http://www.w3.org/2000/svg">
  <path d="M629.84 181.57h-53.832l-11.34-86.016s-5.738-48.977-11.547-55.137c-7.258-7.695-16.262-8.477-16.262-8.477h-373.11s-9 .786-16.262 8.477c-5.8 6.16-11.555 55.137-11.555 55.137l-11.344 86.016H71.283v83.453l41.418 6.64-5.414 41.056v227.25c0 10.668 8.652 19.344 19.336 19.344h35.195c10.695 0 19.355-8.676 19.355-19.344v-53.77h338.29v53.77c0 10.668 8.652 19.344 19.336 19.344h35.203c10.684 0 19.336-8.676 19.336-19.344v-227.25l-5.402-40.965 41.926-6.727-.008-83.457zM180.86 391.83c-18.766 0-33.969-15.199-33.969-33.965 0-18.762 15.211-33.965 33.969-33.965 18.754 0 33.965 15.211 33.965 33.965-.004 18.766-15.207 33.965-33.965 33.965zm272.19-4.133H245.89v-22.305h207.27zm.172-36.027h-207.33v-22.305h207.43zm66.238 40.16c-18.762 0-33.965-15.199-33.965-33.965 0-18.762 15.21-33.965 33.965-33.965 18.754 0 33.969 15.211 33.969 33.965 0 18.766-15.215 33.965-33.97 33.965zM143.8 242.62l15.602-138.23h380.02l17.367 138.23z" fill="#ffffff"/>
</svg>
